<?xml version="1.0" encoding="UTF-8" standalone="no"?>
<svg
   xmlns:dc="http://purl.org/dc/elements/1.1/"
   xmlns:cc="http://creativecommons.org/ns#"
   xmlns:rdf="http://www.w3.org/1999/02/22-rdf-syntax-ns#"
   xmlns:svg="http://www.w3.org/2000/svg"
   xmlns="http://www.w3.org/2000/svg"
   xmlns:sodipodi="http://sodipodi.sourceforge.net/DTD/sodipodi-0.dtd"
   xmlns:inkscape="http://www.inkscape.org/namespaces/inkscape"
   version="1.1"
   id="Layer_1"
   x="0px"
   y="0px"
   width="50px"
   height="50px"
   viewBox="2.5 -5.0 50.0 67.5"
   enable-background="new 0 0 50 50"
   xml:space="preserve"
   inkscape:version="0.48.4 r9939"
   sodipodi:docname="noun_34592_cc.svg"><metadata
     id="metadata3334"><rdf:RDF><cc:Work
         rdf:about=""><dc:format>image/svg+xml</dc:format><dc:type
           rdf:resource="http://purl.org/dc/dcmitype/StillImage" /><dc:title></dc:title></cc:Work></rdf:RDF></metadata><defs
     id="defs3332" /><sodipodi:namedview
     pagecolor="#ffffff"
     bordercolor="#666666"
     borderopacity="1"
     objecttolerance="10"
     gridtolerance="10"
     guidetolerance="10"
     inkscape:pageopacity="0"
     inkscape:pageshadow="2"
     inkscape:window-width="640"
     inkscape:window-height="480"
     id="namedview3330"
     showgrid="false"
     inkscape:zoom="4.72"
     inkscape:cx="25"
     inkscape:cy="25"
     inkscape:window-x="75"
     inkscape:window-y="34"
     inkscape:window-maximized="0"
     inkscape:current-layer="Layer_1" /><g
     id="g3314"><path
       fill="#000000"
       d="M33.614,29.351c0,0,8.89,14.936-1.602,15.467c0,0-6.22-1.598-7.643-2.486c0,0-4.802-1.066-7.646,0.889   c0,0-6.58,2.135-7.469-4.977C9.255,38.243,18.856,12.817,33.614,29.351z"
       id="path3316" /><ellipse
       transform="matrix(0.9967 -0.081 0.081 0.9967 -0.9709 1.5263)"
       fill="#000000"
       cx="18.323"
       cy="12.728"
       rx="4.978"
       ry="7.555"
       id="ellipse3318" /><path
       fill="#000000"
       d="M10.938,21.083c1.018,3.635-0.102,7.124-2.492,7.795c-2.395,0.672-5.163-1.732-6.179-5.37   c-1.019-3.631,0.099-7.121,2.494-7.793C7.157,15.047,9.921,17.448,10.938,21.083z"
       id="path3320" /><path
       fill="#000000"
       d="M27.427,12.368c-1.158,4.014,0.041,7.881,2.685,8.645c2.642,0.764,5.72-1.867,6.88-5.881   c1.159-4.008-0.043-7.875-2.685-8.637C31.667,5.731,28.585,8.36,27.427,12.368z"
       id="path3322" /><path
       fill="#000000"
       d="M39.025,23.946c-1.721,3.358-1.318,7.002,0.893,8.137c2.212,1.131,5.403-0.67,7.123-4.033   c1.721-3.36,1.321-7-0.891-8.133C43.935,18.782,40.746,20.584,39.025,23.946z"
       id="path3324" /></g></svg>